<svg width="399" height="397" viewBox="0 0 399 397" fill="none" xmlns="http://www.w3.org/2000/svg">
<g clip-path="url(#clip0_8:697)">
<path d="M271.406 245.949C488.962 376.645 418.256 425.346 135.703 380.99C61.8763 369.401 0 320.53 0 245.949C0 171.367 60.7564 110.907 135.703 110.907C210.65 110.907 202.369 204.474 271.406 245.949Z" fill="#3F3D56"/>
<path opacity="0.1" d="M290.857 373.274C338.323 373.274 376.802 370.182 376.802 366.369C376.802 362.556 338.323 359.465 290.857 359.465C243.391 359.465 204.912 362.556 204.912 366.369C204.912 370.182 243.391 373.274 290.857 373.274Z" fill="black"/>
<path opacity="0.1" d="M121.354 145.694C146.512 145.694 166.907 142.603 166.907 138.79C166.907 134.976 146.512 131.885 121.354 131.885C96.1952 131.885 75.8003 134.976 75.8003 138.79C75.8003 142.603 96.1952 145.694 121.354 145.694Z" fill="black"/>
<path opacity="0.1" d="M118.966 155.786C99.4207 155.783 80.2728 160.744 63.7344 170.097C47.1959 179.45 33.9418 192.812 25.5029 208.641C35.2034 199.019 47.0444 191.332 60.2606 186.075C73.4769 180.818 87.7745 178.11 102.229 178.124C159.437 178.124 205.816 219.766 205.816 271.13C205.84 285.026 202.38 298.749 195.693 311.281C213.01 294.187 222.59 271.9 222.553 248.792C222.553 197.428 176.174 155.786 118.966 155.786Z" fill="black"/>
<path opacity="0.3" d="M205.816 270.724C205.84 284.62 202.38 298.343 195.693 310.875C185.992 320.497 174.151 328.185 160.935 333.441C147.719 338.698 133.421 341.407 118.966 341.392C61.7583 341.392 15.3795 299.751 15.3795 248.386C15.3562 234.49 18.8161 220.768 25.503 208.235C35.2035 198.613 47.0444 190.926 60.2607 185.669C73.477 180.412 87.7745 177.704 102.23 177.718C159.437 177.718 205.816 219.36 205.816 270.724Z" fill="#9FFF63"/>
<path d="M118.966 341.849C61.5677 341.849 14.8705 299.922 14.8705 248.387C14.8288 234.42 18.3068 220.626 25.044 208.038C33.5244 192.131 46.8437 178.703 63.4633 169.304C80.083 159.905 99.3249 154.92 118.966 154.923C176.365 154.923 223.062 196.851 223.062 248.387C223.063 260.66 220.371 272.814 215.14 284.154C209.909 295.494 202.242 305.798 192.575 314.477C182.909 323.156 171.433 330.04 158.803 334.737C146.173 339.433 132.637 341.85 118.966 341.849ZM118.966 155.837C79.5263 155.837 43.0197 176.482 25.9621 208.433C19.2908 220.898 15.8469 234.557 15.8884 248.387C15.8884 299.418 62.1289 340.935 118.966 340.935C132.503 340.936 145.907 338.543 158.414 333.892C170.92 329.242 182.284 322.424 191.855 313.83C201.427 305.236 209.02 295.033 214.2 283.804C219.38 272.576 222.045 260.54 222.044 248.387C222.044 197.355 175.804 155.837 118.966 155.837V155.837Z" fill="white"/>
<path d="M355.955 343.03C348.432 351.865 349.292 363.804 349.292 363.804C349.292 363.804 362.35 361.42 369.874 352.586C377.397 343.751 376.537 331.812 376.537 331.812C376.537 331.812 363.479 334.196 355.955 343.03Z" fill="#D0CDE1"/>
<path d="M360.886 345.014C359.426 356.058 349.542 364.083 349.542 364.083C349.542 364.083 342.027 354.203 343.486 343.16C344.946 332.117 354.83 324.091 354.83 324.091C354.83 324.091 362.345 333.971 360.886 345.014Z" fill="#9FFF63"/>
<path d="M87.965 86.3202C111.572 86.3202 130.708 69.138 130.708 47.9428C130.708 26.7475 111.572 9.5654 87.965 9.5654C64.3585 9.5654 45.2217 26.7475 45.2217 47.9428C45.2217 69.138 64.3585 86.3202 87.965 86.3202Z" fill="#FF6584"/>
<path d="M180.636 87.071C180.657 125.405 155.282 138.799 123.975 138.813C123.248 138.813 122.524 138.806 121.804 138.792C120.353 138.764 118.917 138.706 117.497 138.616C89.2398 136.832 67.2776 122.771 67.2583 87.1205C67.2383 50.2266 119.73 3.64434 123.667 0.200023C123.671 0.200023 123.671 0.200023 123.674 0.196892C123.824 0.0656229 123.9 0 123.9 0C123.9 0 180.615 48.7401 180.636 87.071Z" fill="#9FFF63"/>
<path d="M121.909 132.95L142.628 106.931L121.858 135.805L121.804 138.792C120.353 138.764 118.917 138.706 117.496 138.616L119.709 100.265L119.692 99.9683L119.73 99.912L119.94 96.2882L99.0869 67.3601L120.002 93.5734L120.054 94.3419L121.726 65.3665L103.871 35.4718L121.942 60.2744L123.667 0.200029L123.674 0.000106812L123.674 0.196899L123.407 47.5718L141.152 28.7828L123.333 51.6517L122.877 77.5963L139.45 52.6912L122.813 81.4107L122.56 95.8372L146.611 61.1696L122.469 100.87L121.909 132.95Z" fill="#3F3D56"/>
<path d="M291.621 109.034C286.187 100.792 275.438 100.407 275.438 100.407C275.438 100.407 264.964 99.2048 258.245 111.758C251.982 123.459 243.339 134.757 256.853 137.496L259.295 130.674L260.806 138.004C262.731 138.128 264.661 138.158 266.589 138.093C281.062 137.673 294.846 138.215 294.402 133.552C293.812 127.353 296.848 116.965 291.621 109.034Z" fill="#2F2E41"/>
<path d="M267.651 186.379L269.049 198.927L301.425 195.79L302.124 186.379H267.651Z" fill="#A0616A"/>
<path d="M264.157 193.28L263.225 200.6C263.225 200.6 252.511 213.985 253.442 236.99C254.374 259.995 238.768 362.263 249.949 363.099C261.129 363.936 281.161 365.191 282.093 362.054C283.024 358.917 284.888 239.918 284.888 239.918C284.888 239.918 289.779 362.202 298.165 362.62C306.55 363.039 334.735 363.875 334.735 360.738C334.735 357.601 310.044 217.54 310.044 217.54L306.084 205.829L302.125 191.398C302.125 191.398 277.434 195.163 270.679 193.699C263.924 192.235 264.157 193.28 264.157 193.28Z" fill="#2F2E41"/>
<path d="M275.338 135.35C283.571 135.35 290.245 129.357 290.245 121.965C290.245 114.573 283.571 108.58 275.338 108.58C267.104 108.58 260.43 114.573 260.43 121.965C260.43 129.357 267.104 135.35 275.338 135.35Z" fill="#A0616A"/>
<path d="M301.426 144.133L298.595 147.831L296.783 150.196L293.739 154.172L278.599 155.217C278.599 155.217 274.921 154.151 270.677 152.593C269.109 152.016 267.462 151.371 265.897 150.688C259.824 148.04 254.952 144.809 260.43 142.669C261.403 142.294 262.337 141.844 263.223 141.322C264.029 140.85 264.779 140.304 265.461 139.695C266.865 138.433 267.904 136.882 268.488 135.177C269.073 133.472 269.185 131.665 268.816 129.912L283.49 128.03C283.064 131.372 286.765 135.017 290.913 137.993C292.276 138.974 293.69 139.879 295.02 140.678C298.507 142.774 301.426 144.133 301.426 144.133Z" fill="#A0616A"/>
<path d="M281.394 148.107C281.394 148.107 267.068 145.911 263.807 141.31C263.807 141.31 249.715 142.878 250.88 149.571C252.045 156.263 263.691 192.862 263.691 192.862C263.691 192.862 292.807 187.843 303.522 191.607L310.044 144.97C310.044 144.97 307.715 140.369 303.289 141.624C298.863 142.878 297.116 141.728 297.116 141.728C297.116 141.728 292.108 148.107 281.394 148.107Z" fill="#D0CDE1"/>
<path d="M294.438 221.514C294.438 221.514 304.454 231.552 298.863 233.225C293.273 234.899 286.518 226.533 286.518 226.533L294.438 221.514Z" fill="#A0616A"/>
<path d="M297.699 222.35C297.699 222.35 289.546 227.37 292.574 230.716C295.602 234.062 306.084 227.788 306.084 226.533C306.084 225.278 297.699 222.35 297.699 222.35Z" fill="#A0616A"/>
<path d="M277.667 195.163L270.912 196.208L266.486 166.72C266.742 161.37 266.545 156.011 265.897 150.688C265.403 147.132 264.579 143.715 263.223 141.322C264.029 140.85 264.779 140.304 265.462 139.695C267.083 142.002 270.041 146.888 270.677 152.593C270.843 154.021 270.844 155.462 270.679 156.891C269.515 166.72 269.747 168.602 269.747 168.602L277.667 195.163Z" fill="#2F2E41"/>
<path d="M262.061 143.088C262.061 143.088 251.113 140.369 250.181 146.225C249.25 152.08 250.414 167.138 252.977 172.785C255.539 178.432 264.39 196.836 264.39 196.836C264.39 196.836 280.462 215.24 281.161 219.632C281.86 224.023 285.354 228.624 285.354 228.624L296.534 222.141L274.639 188.888L265.089 165.883C265.089 165.883 269.049 144.97 262.061 143.088Z" fill="#D0CDE1"/>
<path d="M304.92 143.924L310.044 144.97C310.044 144.97 314.703 162.956 312.839 172.576C310.976 182.196 310.743 185.542 310.743 185.542L309.112 212.939C309.112 212.939 309.578 230.507 306.317 227.788C303.056 225.069 296.534 223.814 296.534 223.814C296.534 223.814 297.233 216.076 299.795 214.194C299.795 214.194 302.823 199.764 300.96 193.489C299.096 187.215 304.92 143.924 304.92 143.924Z" fill="#D0CDE1"/>
<path d="M306.783 164.21L300.843 195.058L297.233 193.699L303.522 164.21L296.783 150.196L290.914 137.993C292.276 138.974 293.69 139.879 295.02 140.678L298.596 147.831L306.783 164.21Z" fill="#2F2E41"/>
<path d="M289.218 108.24L278.599 103.245L263.934 105.288L260.9 117.32L268.453 117.059L270.563 112.639V116.987L274.048 116.866L276.07 109.829L277.335 117.32L289.724 117.093L289.218 108.24Z" fill="#2F2E41"/>
<path d="M268.24 366.369C272.237 366.369 275.477 365.278 275.477 363.932C275.477 362.586 272.237 361.495 268.24 361.495C264.243 361.495 261.002 362.586 261.002 363.932C261.002 365.278 264.243 366.369 268.24 366.369Z" fill="#2F2E41"/>
<path d="M317.093 366.369C321.09 366.369 324.33 365.278 324.33 363.932C324.33 362.586 321.09 361.495 317.093 361.495C313.096 361.495 309.855 362.586 309.855 363.932C309.855 365.278 313.096 366.369 317.093 366.369Z" fill="#2F2E41"/>
<path d="M134.138 296.491C126.735 300.816 118.203 303.334 109.386 303.795C100.568 304.256 91.7684 302.645 83.8559 299.12L84.9761 297.069C94.5137 301.275 105.324 302.56 115.752 300.726C126.18 298.892 135.651 294.04 142.716 286.914C149.781 279.787 154.05 270.778 154.87 261.265C155.69 251.753 153.016 242.261 147.256 234.243C141.497 226.225 132.97 220.123 122.98 216.87C112.99 213.617 102.089 213.394 91.9437 216.233C81.7989 219.072 72.9697 224.818 66.8078 232.591C60.6458 240.364 57.4906 249.735 57.8251 259.272L55.2813 259.342C54.9995 251.318 57.0649 243.368 61.2716 236.284C65.4784 229.201 71.6795 223.231 79.2569 218.97C86.8343 214.708 95.5233 212.305 104.458 211.998C113.392 211.692 122.26 213.493 130.177 217.223C138.095 220.953 144.785 226.481 149.581 233.256C154.378 240.031 157.112 247.816 157.513 255.836C157.914 263.855 155.967 271.829 151.865 278.962C147.764 286.096 141.652 292.139 134.138 296.491Z" fill="white"/>
<path d="M111.118 255.17C103.593 256.666 93.5776 257.577 86.2799 256.625L95.441 262.889L69.7944 277.741L71.1738 279.661L96.8204 264.809L99.3986 274.888C101.443 268.526 106.498 260.71 111.118 255.17Z" fill="white"/>
</g>
<defs>
<clipPath id="clip0_8:697">
<rect width="399" height="397" fill="white"/>
</clipPath>
</defs>
</svg>
